<svg width="22" height="20" viewBox="0 0 22 20" fill="none" xmlns="http://www.w3.org/2000/svg">
<path d="M11 0.332031C4.95816 0.332031 0 5.24723 0 11.2891V16.4453C0 17.5115 0.867367 18.3789 1.93359 18.3789H2.57812V11.9336H1.93359C1.70655 11.9336 1.49166 11.9801 1.28906 12.0523V11.2891C1.28906 5.95784 5.66878 1.62109 11 1.62109C16.3312 1.62109 20.7109 5.95784 20.7109 11.2891V12.0523C20.5083 11.9801 20.2935 11.9336 20.0664 11.9336H19.4219V18.3789H20.0664C21.1326 18.3789 22 17.5115 22 16.4453V11.2891C22 5.24723 17.0418 0.332031 11 0.332031Z" fill="#959595"/>
<path d="M5.80078 10.6445H5.15625C4.4443 10.6445 3.86719 11.2216 3.86719 11.9336V18.3789C3.86719 19.0909 4.4443 19.668 5.15625 19.668H5.80078C6.15673 19.668 6.44531 19.3794 6.44531 19.0234V11.2891C6.44531 10.9331 6.15673 10.6445 5.80078 10.6445ZM16.8438 10.6445H16.1992C15.8433 10.6445 15.5547 10.9331 15.5547 11.2891V19.0234C15.5547 19.3794 15.8433 19.668 16.1992 19.668H16.8438C17.5557 19.668 18.1328 19.0909 18.1328 18.3789V11.9336C18.1328 11.2216 17.5557 10.6445 16.8438 10.6445Z" fill="#959595"/>
</svg>
