<svg width="28" height="28" viewBox="0 0 28 28" fill="none" xmlns="http://www.w3.org/2000/svg">
<g clip-path="url(#clip0_45_1210)">
<path d="M27.3175 5.08496H20.8624C21.5707 4.04475 21.6391 2.64032 20.9242 1.51151C19.965 -0.00344133 17.9513 -0.455707 16.4364 0.503566C16.053 0.746379 15.4131 1.31409 14.2876 3.4311C14.187 3.62086 14.0907 3.8068 13.9999 3.98563C13.9091 3.8068 13.8129 3.62086 13.7123 3.4311C12.5867 1.31404 11.9469 0.746379 11.5635 0.503566C10.0486 -0.455707 8.03489 -0.00338668 7.07561 1.51151C6.61077 2.24547 6.45978 3.11664 6.65015 3.96435C6.74147 4.37178 6.90663 4.75027 7.13522 5.08496H0.682373V13.0265H1.64165V28H26.3582V13.0265H27.3175V5.08496ZM17.3136 1.89C17.575 1.7243 17.8714 1.63954 18.1733 1.63954C18.2915 1.63954 18.4112 1.65266 18.5294 1.67891C18.9494 1.77352 19.3076 2.02563 19.5384 2.38936C20.0136 3.14027 19.7894 4.13832 19.0386 4.61361C18.5868 4.90017 16.9308 5.05985 15.2819 5.08446C16.0093 3.60446 16.8619 2.17602 17.3136 1.89ZM8.46151 2.38925C8.69229 2.02557 9.05054 1.77346 9.47054 1.6788C9.58867 1.65255 9.70844 1.63943 9.82656 1.63943C10.1284 1.63943 10.4248 1.72419 10.6863 1.88989C11.138 2.17591 11.9907 3.6044 12.7181 5.08435C11.8939 5.07178 11.0675 5.02584 10.391 4.94709C9.71445 4.86834 9.18726 4.75678 8.9614 4.6135C8.59773 4.38326 8.34502 4.02506 8.25096 3.605C8.1563 3.185 8.23122 2.75297 8.46151 2.38925ZM10.6802 26.3593H3.28233V13.0265H10.6802V26.3593ZM10.6802 11.3858H2.32311V6.72564H10.6803V11.3858H10.6802ZM15.6789 26.3593H12.321V6.72564H15.6789V26.3593ZM24.7175 26.3593H17.3196V13.0265H24.7175V26.3593ZM25.6768 11.3858H17.3196V6.72564H25.6768V11.3858Z" fill="#1F2229"/>
</g>
<defs>
<clipPath id="clip0_45_1210">
<rect width="28" height="28" fill="white"/>
</clipPath>
</defs>
</svg>
