<svg width="32" height="32" viewBox="0 0 32 32" fill="none" xmlns="http://www.w3.org/2000/svg">
<g clip-path="url(#clip0_45_1186)">
<path d="M5.89471 9.80512L1.74609 8.11836L2.97473 18.7589L1.88012 27.859L10.8954 29.7375L20.935 27.9272L29.679 29.8773L28.5845 19.3049L29.8163 9.70761L21.1999 6.29834L19.1862 7.57885M21.1999 6.32109L19.866 18.3787M19.866 18.3787L20.9255 27.9533M19.866 18.3787L11.2911 19.4284M19.866 18.3787L28.5749 19.3277M10.8858 29.7635L11.2911 19.4284M11.2911 19.4284L2.96515 18.7784" stroke="#1F2229" stroke-width="2" stroke-miterlimit="22.93"/>
<path fill-rule="evenodd" clip-rule="evenodd" d="M12.1312 0.684082C13.0843 0.683932 14.0201 0.952959 14.8411 1.46318C15.6621 1.9734 16.3384 2.70617 16.7996 3.58524C17.2607 4.46432 17.49 5.45757 17.4634 6.46168C17.4369 7.46579 17.1555 8.44406 16.6486 9.29471L12.1282 18.0876L7.61083 9.29471C7.10585 8.44343 6.82615 7.46527 6.80073 6.46167C6.77531 5.45808 7.0051 4.46559 7.46627 3.58713C7.92744 2.70868 8.60321 1.97624 9.42348 1.46578C10.2437 0.955313 11.1786 0.685423 12.1312 0.684082ZM12.1312 2.81995C12.786 2.81995 13.4261 3.02462 13.9704 3.40807C14.5148 3.79152 14.939 4.33652 15.1895 4.97413C15.4399 5.61173 15.5053 6.31329 15.3773 6.99005C15.2494 7.66682 14.9338 8.28838 14.4706 8.77611C14.0074 9.26384 13.4174 9.59582 12.7751 9.73006C12.1328 9.8643 11.4672 9.79476 10.8625 9.53024C10.2577 9.26573 9.741 8.81812 9.37767 8.24404C9.01434 7.66996 8.82073 6.9952 8.82133 6.30513C8.82213 5.38051 9.1712 4.49405 9.79184 3.84054C10.4125 3.18704 11.2539 2.81995 12.1312 2.81995Z" fill="#1F2229"/>
</g>
<defs>
<clipPath id="clip0_45_1186">
<rect width="31" height="32" fill="white" transform="translate(0.5)"/>
</clipPath>
</defs>
</svg>
