<svg width="23" height="23" viewBox="0 0 23 23" fill="none" xmlns="http://www.w3.org/2000/svg">
<path fill-rule="evenodd" clip-rule="evenodd" d="M0.71967 0.21967C1.01256 -0.0732232 1.48744 -0.0732232 1.78033 0.21967L11.75 10.1893L21.7197 0.21967C22.0126 -0.0732232 22.4874 -0.0732232 22.7803 0.21967C23.0732 0.51256 23.0732 0.98744 22.7803 1.28033L12.8107 11.25L22.7803 21.2197C23.0732 21.5126 23.0732 21.9874 22.7803 22.2803C22.4874 22.5732 22.0126 22.5732 21.7197 22.2803L11.75 12.3107L1.78033 22.2803C1.48744 22.5732 1.01256 22.5732 0.71967 22.2803C0.426777 21.9874 0.426777 21.5126 0.71967 21.2197L10.6893 11.25L0.71967 1.28033C0.426777 0.98744 0.426777 0.51256 0.71967 0.21967Z" fill="white"/>
</svg>
