<svg width="9" height="16" viewBox="0 0 9 16" fill="none" xmlns="http://www.w3.org/2000/svg">
<path d="M0.469671 13.9697C0.176778 14.2626 0.176778 14.7374 0.469671 15.0303C0.762564 15.3232 1.23744 15.3232 1.53033 15.0303L0.469671 13.9697ZM7.5 8L8.03033 8.53033C8.32322 8.23744 8.32322 7.76256 8.03033 7.46967L7.5 8ZM1.53033 0.96967C1.23744 0.676777 0.762564 0.676777 0.46967 0.96967C0.176777 1.26256 0.176777 1.73744 0.46967 2.03033L1.53033 0.96967ZM1.53033 15.0303L8.03033 8.53033L6.96967 7.46967L0.469671 13.9697L1.53033 15.0303ZM8.03033 7.46967L1.53033 0.96967L0.46967 2.03033L6.96967 8.53033L8.03033 7.46967Z" fill="white"/>
</svg>
