<svg width="89" height="34" viewBox="0 0 89 34" fill="none" xmlns="http://www.w3.org/2000/svg">
<g clip-path="url(#clip0_27_28)">
<g clip-path="url(#clip1_27_28)">
<path fill-rule="evenodd" clip-rule="evenodd" d="M77.4525 1.05023C80.764 0.576769 83.7921 1.37297 85.8556 3.31376C87.7431 5.08901 88.6952 7.60333 88.4677 10.2125C88.0371 15.1441 85.6314 19.0955 78.9336 25.6057L67.9718 25.9636C67.9718 25.9636 75.6075 19.064 78.4794 15.6929C80.3402 13.5085 81.1284 11.1504 80.3641 9.57871C79.8798 8.58268 78.7923 8.08698 77.4525 8.1611V1.05023ZM54.99 4.96038V11.3714L64.5107 10.3297V3.62925L54.99 4.96038ZM47.2363 33.917V6.04455L53.7693 5.13098V33.917H47.2363ZM21.4296 9.66092V15.0503L28.626 14.263V8.65501L21.4296 9.66092ZM15.5174 33.9168V10.4878L20.501 9.79101V33.9168H15.5174ZM0.854492 12.5377V17.302L13.773 15.8881V10.7319L0.854492 12.5377ZM4.97648 17.5916V33.9169H9.70641V17.1114L4.97648 17.5916ZM21.4296 24.5503V19.0617L26.1539 18.6578V24.2936L21.4296 24.5503ZM21.4295 28.5052V33.9168H28.6259V28.2894L21.4295 28.5052ZM54.99 22.7235V16.1936L61.2306 15.6615V22.3844L54.99 22.7235ZM54.9899 27.4962V33.9168H64.5106V27.2106L54.9899 27.4962ZM30.5299 33.9169V8.3886L36.2066 7.59486V33.9169H30.5299ZM37.2662 28.0299V33.9168H45.5069V27.7825L37.2662 28.0299ZM88.8545 33.9169V26.4758L66.6195 27.026V33.9169H88.8545ZM66.9093 15.0199C66.5433 7.30588 69.7151 2.57775 76.1742 1.20987L76.1782 8.452C74.8225 9.02028 73.4827 10.054 73.7965 14.4121L66.9093 15.0199Z" fill="white"/>
</g>
</g>
<defs>
<clipPath id="clip0_27_28">
<rect width="88" height="33" fill="white" transform="translate(0.854492 0.916992)"/>
</clipPath>
<clipPath id="clip1_27_28">
<rect width="88" height="33" fill="white" transform="translate(0.854492 0.916992)"/>
</clipPath>
</defs>
</svg>
