<svg width="30" height="26" viewBox="0 0 30 26" fill="none" xmlns="http://www.w3.org/2000/svg">
<g clip-path="url(#clip0_45_1196)">
<g clip-path="url(#clip1_45_1196)">
<path d="M2.79961 15.7H1.59961C1.04732 15.7 0.599609 16.1477 0.599609 16.7V24.3C0.599609 24.8522 1.04732 25.3 1.59961 25.3H2.79961C3.35189 25.3 3.79961 24.8522 3.79961 24.3V16.7C3.79961 16.1477 3.35189 15.7 2.79961 15.7Z" fill="#1F2229"/>
<path d="M9.2 12.5H8C7.44772 12.5 7 12.9477 7 13.5V24.3C7 24.8523 7.44772 25.3 8 25.3H9.2C9.75228 25.3 10.2 24.8523 10.2 24.3V13.5C10.2 12.9477 9.75228 12.5 9.2 12.5Z" fill="#1F2229"/>
<path d="M15.5994 8.5H14.3994C13.8471 8.5 13.3994 8.94772 13.3994 9.5V24.3C13.3994 24.8523 13.8471 25.3 14.3994 25.3H15.5994C16.1517 25.3 16.5994 24.8523 16.5994 24.3V9.5C16.5994 8.94772 16.1517 8.5 15.5994 8.5Z" fill="#1F2229"/>
<path d="M21.9998 4.5H20.7998C20.2475 4.5 19.7998 4.94772 19.7998 5.5V24.3C19.7998 24.8523 20.2475 25.3 20.7998 25.3H21.9998C22.5521 25.3 22.9998 24.8523 22.9998 24.3V5.5C22.9998 4.94772 22.5521 4.5 21.9998 4.5Z" fill="#1F2229"/>
<path d="M28.3992 0.5H27.1992C26.6469 0.5 26.1992 0.947715 26.1992 1.5V24.3C26.1992 24.8523 26.6469 25.3 27.1992 25.3H28.3992C28.9515 25.3 29.3992 24.8523 29.3992 24.3V1.5C29.3992 0.947715 28.9515 0.5 28.3992 0.5Z" fill="#1F2229"/>
</g>
</g>
<defs>
<clipPath id="clip0_45_1196">
<rect width="30" height="25" fill="white" transform="translate(0 0.5)"/>
</clipPath>
<clipPath id="clip1_45_1196">
<rect width="30" height="25" fill="white" transform="translate(0 0.5)"/>
</clipPath>
</defs>
</svg>
